# xmcd
#
# Track frame offsets:
#	150
#	17508
#	34998
#	52788
#	73070
#	90659
#	105565
#	122942
#	136937
#	151079
#
# Disc length: 2147 seconds
# Revision: 0
# Processed by: cddbd v1.5.2PL0 Copyright (c) Steve Scherf et al.
# Submitted via: dBpowerAMP V12.0
#
DISCID=7908610a
DTITLE=Trond Olsen Band - A New Day Coming
DYEAR=2009
DGENRE=Blues
TTITLE0=Good Thing
TTITLE1=Low Down
TTITLE2=A New Day Coming
TTITLE3=Lonelyhearted Blues
TTITLE4=Won't Let Go
TTITLE5=How You Trick Me
TTITLE6=Worried
TTITLE7=So Many Times
TTITLE8=When the Morning Comes
TTITLE9=Swingin
EXTD=
EXTT0=
EXTT1=
EXTT2=
EXTT3=
EXTT4=
EXTT5=
EXTT6=
EXTT7=
EXTT8=
EXTT9=
PLAYORDER=
